<svg width="25" height="25" viewBox="0 0 25 25" fill="none" xmlns="http://www.w3.org/2000/svg">
<path d="M9.9834 12.731V13.5H3.98486V12.731H9.9834ZM4.25586 2.83594V13.5H3.35498V2.83594H4.25586ZM9.23633 7.61865V8.3877H3.98486V7.61865H9.23633ZM9.94678 2.83594V3.6123H3.98486V2.83594H9.94678ZM20.9196 16.4316V20.2256C20.7976 20.4062 20.5876 20.6064 20.2897 20.8262C19.9919 21.0459 19.5915 21.2388 19.0886 21.4048C18.5856 21.5659 17.9606 21.6465 17.2136 21.6465C16.5886 21.6465 16.0148 21.5342 15.4924 21.3096C14.9699 21.085 14.5158 20.7603 14.1301 20.3354C13.7492 19.9058 13.4538 19.3906 13.2438 18.79C13.0388 18.1895 12.9362 17.5156 12.9362 16.7686V15.4795C12.9362 14.7471 13.0314 14.0879 13.2219 13.502C13.4123 12.9111 13.6882 12.4058 14.0495 11.9858C14.4108 11.5659 14.8454 11.2461 15.3532 11.0264C15.8659 10.8018 16.4396 10.6895 17.0744 10.6895C17.8654 10.6895 18.5319 10.8262 19.0739 11.0996C19.6159 11.373 20.0383 11.749 20.341 12.2275C20.6486 12.7012 20.8391 13.2383 20.9123 13.8389H20.0114C19.9431 13.4141 19.8015 13.0234 19.5866 12.667C19.3718 12.3057 19.0593 12.0151 18.6491 11.7954C18.2438 11.5757 17.7189 11.4658 17.0744 11.4658C16.5568 11.4658 16.0954 11.561 15.6901 11.7515C15.2897 11.9419 14.9528 12.2129 14.6794 12.5645C14.406 12.916 14.1984 13.3384 14.0568 13.8315C13.9152 14.3198 13.8444 14.8643 13.8444 15.4648V16.7686C13.8444 17.3936 13.9226 17.9575 14.0788 18.4604C14.2399 18.9634 14.4694 19.3955 14.7673 19.7568C15.0651 20.1182 15.4216 20.3965 15.8366 20.5918C16.2517 20.7822 16.7131 20.8774 17.2209 20.8774C17.7629 20.8774 18.2243 20.8262 18.6052 20.7236C18.986 20.6211 19.2912 20.499 19.5207 20.3574C19.7551 20.2109 19.9235 20.0742 20.0261 19.9473V17.2007H17.1623V16.4316H20.9196Z" fill="white"/>
<rect x="0.5" y="0.5" width="24" height="24" stroke="white"/>
</svg>
