<svg width="24" height="17" viewBox="0 0 24 17" fill="none" xmlns="http://www.w3.org/2000/svg">
<g clip-path="url(#clip0_36_322)">
<path d="M15 2.41524H22.5V3.86978H15V2.41524ZM18.7617 5.32433C20.3945 5.32433 21.6758 5.87736 22.6055 6.98342C23.5352 8.08948 24 9.47585 24 11.1425H15C15 12.4304 15.3164 13.4796 15.9492 14.2902C16.582 15.1008 17.5156 15.5061 18.75 15.5061C19.7344 15.5061 20.5234 15.241 21.1172 14.7107C21.7109 14.1804 22.1172 13.4758 22.3359 12.5971H23.8594C23.6094 13.9001 23.043 14.9531 22.1602 15.7561C21.2773 16.5592 20.1406 16.9607 18.75 16.9607C17.125 16.9607 15.8438 16.4077 14.9062 15.3016C13.9688 14.1955 13.5 12.8092 13.5 11.1425C13.5 9.47585 13.9688 8.08948 14.9062 6.98342C15.8438 5.87736 17.1289 5.32433 18.7617 5.32433ZM22.3359 9.68797C22.1328 8.79403 21.7305 8.08569 21.1289 7.56297C20.5273 7.04024 19.7383 6.77888 18.7617 6.77888C17.7852 6.77888 16.9961 7.04024 16.3945 7.56297C15.793 8.08569 15.3828 8.79403 15.1641 9.68797H22.3359ZM12 12.5971C12 13.794 11.5117 14.8205 10.5352 15.6766C9.55859 16.5327 8.375 16.9607 6.98438 16.9607H0V0.960693H6.11719C7.32031 0.960693 8.35156 1.38494 9.21094 2.23342C10.0703 3.08191 10.5 4.11221 10.5 5.32433C10.5 6.5516 10.1016 7.61221 9.30469 8.50615C10.0703 8.82433 10.7109 9.35842 11.2266 10.1084C11.7422 10.8584 12 11.688 12 12.5971ZM6.1875 2.41524H1.5V8.23342H6.1875C6.96875 8.23342 7.63281 7.94933 8.17969 7.38115C8.72656 6.81297 9 6.12736 9 5.32433C9 4.5213 8.72656 3.83569 8.17969 3.26751C7.63281 2.69933 6.96875 2.41524 6.1875 2.41524ZM7.125 9.68797H1.5V15.5061H7.125C8.04688 15.5061 8.83984 15.2221 9.50391 14.6539C10.168 14.0857 10.5 13.4001 10.5 12.5971C10.5 11.794 10.168 11.1084 9.50391 10.5402C8.83984 9.97206 8.04688 9.68797 7.125 9.68797Z" fill="white"/>
</g>
<defs>
<clipPath id="clip0_36_322">
<rect width="24" height="16" fill="white" transform="translate(0 0.960693)"/>
</clipPath>
</defs>
</svg>
