<svg width="24" height="25" viewBox="0 0 24 25" fill="none" xmlns="http://www.w3.org/2000/svg">
<g clip-path="url(#clip0_36_316)">
<path d="M11.9999 6.61003C10.9265 6.61003 9.87708 6.92836 8.98451 7.52475C8.09194 8.12115 7.39627 8.96883 6.98547 9.9606C6.57466 10.9524 6.46718 12.0437 6.6766 13.0965C6.88603 14.1494 7.40296 15.1165 8.16203 15.8756C8.92109 16.6346 9.88821 17.1516 10.9411 17.361C11.9939 17.5704 13.0852 17.4629 14.077 17.0521C15.0688 16.6413 15.9165 15.9457 16.5129 15.0531C17.1092 14.1605 17.4276 13.1111 17.4276 12.0377C17.4259 10.5987 16.8536 9.21908 15.8361 8.20155C14.8185 7.18403 13.4389 6.61166 11.9999 6.61003ZM11.9999 16.4785C11.1216 16.4785 10.2631 16.218 9.53277 15.73C8.80249 15.2421 8.2333 14.5485 7.89719 13.7371C7.56107 12.9256 7.47313 12.0327 7.64448 11.1713C7.81583 10.3099 8.23878 9.51861 8.85983 8.89755C9.48089 8.27649 10.2722 7.85355 11.1336 7.6822C11.995 7.51085 12.8879 7.59879 13.6994 7.93491C14.5108 8.27102 15.2044 8.84021 15.6923 9.57049C16.1803 10.3008 16.4407 11.1594 16.4407 12.0377C16.4394 13.215 15.9711 14.3438 15.1386 15.1763C14.3061 16.0089 13.1773 16.4771 11.9999 16.4785ZM17.4276 0.195557H6.57231C4.87168 0.197483 3.24125 0.87391 2.03872 2.07644C0.836191 3.27897 0.159763 4.9094 0.157837 6.61003V17.4653C0.159763 19.1659 0.836191 20.7964 2.03872 21.9989C3.24125 23.2014 4.87168 23.8778 6.57231 23.8798H17.4276C19.1282 23.8778 20.7586 23.2014 21.9612 21.9989C23.1637 20.7964 23.8401 19.1659 23.842 17.4653V6.61003C23.8401 4.9094 23.1637 3.27897 21.9612 2.07644C20.7586 0.87391 19.1282 0.197483 17.4276 0.195557ZM22.8552 17.4653C22.8536 18.9043 22.2812 20.2839 21.2637 21.3014C20.2462 22.3189 18.8666 22.8913 17.4276 22.8929H6.57231C5.13331 22.8913 3.75372 22.3189 2.7362 21.3014C1.71867 20.2839 1.14631 18.9043 1.14468 17.4653V6.61003C1.14631 5.17103 1.71867 3.79144 2.7362 2.77392C3.75372 1.75639 5.13331 1.18403 6.57231 1.1824H17.4276C18.8666 1.18403 20.2462 1.75639 21.2637 2.77392C22.2812 3.79144 22.8536 5.17103 22.8552 6.61003V17.4653ZM19.4013 5.62319C19.4013 5.81837 19.3434 6.00916 19.2349 6.17145C19.1265 6.33373 18.9724 6.46022 18.7921 6.53491C18.6117 6.6096 18.4133 6.62915 18.2219 6.59107C18.0305 6.55299 17.8546 6.459 17.7166 6.32099C17.5786 6.18298 17.4846 6.00714 17.4465 5.81571C17.4085 5.62428 17.428 5.42586 17.5027 5.24554C17.5774 5.06522 17.7039 4.9111 17.8662 4.80266C18.0284 4.69422 18.2192 4.63635 18.4144 4.63635C18.676 4.63667 18.9269 4.74075 19.1119 4.92575C19.2969 5.11074 19.4009 5.36156 19.4013 5.62319Z" fill="white"/>
</g>
<defs>
<clipPath id="clip0_36_316">
<rect width="24" height="24" fill="white" transform="translate(0 0.0375977)"/>
</clipPath>
</defs>
</svg>
