<svg width="24" height="25" viewBox="0 0 24 25" fill="none" xmlns="http://www.w3.org/2000/svg">
<path d="M9.9761 14.9759C11.4472 16.4998 13.2273 17.6764 15.1912 18.423L17.848 16.264C17.9268 16.2087 18.0202 16.179 18.1158 16.179C18.2115 16.179 18.3048 16.2087 18.3836 16.264L23.3168 19.5096C23.5041 19.6246 23.6626 19.7825 23.7799 19.9708C23.8971 20.1591 23.9699 20.3726 23.9925 20.5946C24.015 20.8165 23.9867 21.0408 23.9098 21.2497C23.8329 21.4586 23.7095 21.6463 23.5493 21.7981L21.2378 24.1298C20.9068 24.4638 20.4999 24.7089 20.0535 24.8432C19.6071 24.9776 19.1351 24.997 18.6796 24.8998C14.1356 23.9414 9.94731 21.697 6.59337 18.423C3.31386 15.1164 1.04446 10.9091 0.0604563 6.31138C-0.0367507 5.85343 -0.0164623 5.3776 0.119355 4.93C0.255173 4.48241 0.501914 4.07824 0.835667 3.75664L3.23177 1.39621C3.38005 1.24062 3.56087 1.12129 3.76071 1.04717C3.96055 0.973049 4.17422 0.946053 4.38572 0.968205C4.59722 0.990356 4.80107 1.06108 4.98201 1.17508C5.16295 1.28908 5.31629 1.44341 5.43055 1.6265L8.71463 6.59924C8.77127 6.67732 8.80185 6.77193 8.80185 6.8691C8.80185 6.96628 8.77127 7.06088 8.71463 7.13897L6.55108 9.79445C7.30204 11.7598 8.47201 13.5297 9.9761 14.9759Z" fill="white"/>
</svg>
