<svg width="24" height="24" viewBox="0 0 24 24" fill="none" xmlns="http://www.w3.org/2000/svg">
<path d="M21.5625 3.1218C21.3813 2.96484 21.1608 2.86011 20.9247 2.81882C20.6885 2.77754 20.4456 2.80125 20.2219 2.88742L2.91563 9.6843C2.65009 9.78717 2.42521 9.97362 2.27492 10.2155C2.12464 10.4574 2.0571 10.7416 2.0825 11.0252C2.1079 11.3089 2.22486 11.5765 2.41573 11.7879C2.60661 11.9992 2.86103 12.1427 3.14063 12.1968L7.6875 13.1062V18.7499C7.68781 19.0085 7.7645 19.2613 7.90794 19.4764C8.05137 19.6916 8.25517 19.8596 8.49375 19.9593C8.65462 20.0249 8.82631 20.0598 9 20.0624C9.17252 20.0635 9.3435 20.03 9.5029 19.964C9.66229 19.898 9.80687 19.8008 9.92813 19.6781L12.4875 17.1187L16.3125 20.4843C16.5494 20.6967 16.8568 20.8137 17.175 20.8124C17.3121 20.8136 17.4484 20.7914 17.5781 20.7468C17.7946 20.678 17.9892 20.5534 18.1422 20.3855C18.2953 20.2177 18.4014 20.0125 18.45 19.7906L21.9844 4.40617C22.0372 4.17396 22.0258 3.93174 21.9515 3.70549C21.8772 3.47924 21.7427 3.27747 21.5625 3.1218V3.1218ZM3.21563 10.9218C3.20907 10.8823 3.21679 10.8417 3.2374 10.8074C3.25801 10.773 3.29017 10.7471 3.32813 10.7343L17.8125 5.04367L8.11875 12.0468L3.36563 11.0905C3.3242 11.0859 3.28595 11.0661 3.25825 11.035C3.23055 11.0038 3.21537 10.9635 3.21563 10.9218V10.9218ZM9.13125 18.8812C9.10525 18.9084 9.07129 18.9267 9.03423 18.9335C8.99717 18.9402 8.95893 18.935 8.925 18.9187C8.89204 18.9043 8.86391 18.8807 8.84397 18.8508C8.82402 18.8209 8.8131 18.7859 8.8125 18.7499V13.8843L11.6344 16.3781L9.13125 18.8812ZM17.3625 19.5374C17.3561 19.5699 17.3412 19.6002 17.3193 19.6251C17.2974 19.6499 17.2693 19.6686 17.2378 19.679C17.2064 19.6895 17.1727 19.6915 17.1403 19.6847C17.1078 19.678 17.0778 19.6627 17.0531 19.6406L9.15 12.6843L20.8688 4.22805L17.3625 19.5374Z" fill="white"/>
</svg>
