<svg width="24" height="21" viewBox="0 0 24 21" fill="none" xmlns="http://www.w3.org/2000/svg">
<path d="M0.0703125 4.3343C0.0703125 3.54034 0.523437 3.11223 1.42969 3.04996L4.92188 3.07331C5.15625 3.07331 5.3125 3.19007 5.39062 3.42359C5.75 4.59117 6.15234 5.59918 6.59766 6.44762C7.04297 7.29607 7.625 8.27294 8.34375 9.37826C8.40625 9.51837 8.50781 9.58842 8.64844 9.58842C8.75781 9.58842 8.84375 9.53393 8.90625 9.42496L8.97656 9.16809L9 5.12826C9 4.84804 8.93359 4.66122 8.80078 4.56782C8.66797 4.47441 8.42188 4.40436 8.0625 4.35765C7.78125 4.31095 7.64062 4.1397 7.64062 3.84392C7.64062 3.78164 7.64844 3.73494 7.66406 3.70381C7.99219 2.6919 8.92969 2.18595 10.4766 2.18595L11.7891 2.1626C12.3828 2.1626 12.875 2.31049 13.2656 2.60628C13.6562 2.90207 13.8516 3.3691 13.8516 4.00738V9.3082C13.9609 9.38604 14.0625 9.42496 14.1562 9.42496C14.3906 9.42496 14.5938 9.28485 14.7656 9.00463C16.4844 6.60719 17.4141 5.00371 17.5547 4.19419C17.5547 4.17862 17.5703 4.1397 17.6016 4.07743C17.7109 3.84392 17.8906 3.64154 18.1406 3.47029C18.3906 3.29904 18.6094 3.18229 18.7969 3.12002C18.8594 3.08888 18.9297 3.07331 19.0078 3.07331H22.6406L22.875 3.09666C23.1875 3.09666 23.4297 3.24456 23.6016 3.54034C23.6641 3.63375 23.707 3.73494 23.7305 3.84392C23.7539 3.95289 23.7695 4.06186 23.7773 4.17084C23.7852 4.27981 23.7891 4.34208 23.7891 4.35765V4.52111C23.6797 5.15939 23.4023 5.84048 22.957 6.56438C22.5117 7.28828 21.9453 8.07056 21.2578 8.91122C20.5703 9.75188 20.1406 10.3045 19.9688 10.5692C19.8281 10.756 19.7578 10.9272 19.7578 11.0829C19.7578 11.2075 19.8203 11.3476 19.9453 11.5033L23.3672 15.8C23.5547 16.049 23.6484 16.3215 23.6484 16.6173C23.6484 16.9753 23.5078 17.2711 23.2266 17.5046C22.9453 17.7381 22.6094 17.8705 22.2188 17.9016L21.8203 17.925H18.2578C18.2422 17.925 18.2109 17.9288 18.1641 17.9366C18.1172 17.9444 18.0859 17.9483 18.0703 17.9483C17.7266 17.9483 17.4062 17.8004 17.1094 17.5046C17 17.3801 16.2656 16.4616 14.9062 14.7491C14.8281 14.6402 14.7188 14.539 14.5781 14.4456C14.5156 14.6946 14.4336 15.0527 14.332 15.5197C14.2305 15.9868 14.1562 16.3215 14.1094 16.5239L14.0391 16.9208C13.8828 17.4657 13.5547 17.7926 13.0547 17.9016L12.7266 17.925H10.4297C9.13281 17.925 7.83984 17.3334 6.55078 16.1502C5.26172 14.9671 4.10156 13.4375 3.07031 11.5616C2.03906 9.68572 1.07812 7.50234 0.1875 5.0115C0.109375 4.80912 0.0703125 4.58338 0.0703125 4.3343ZM14.1562 10.3824C13.8281 10.3824 13.5312 10.2929 13.2656 10.1138C13 9.9348 12.8672 9.68961 12.8672 9.37826V4.00738C12.8672 3.69602 12.7891 3.47418 12.6328 3.34186C12.4766 3.20953 12.2031 3.14337 11.8125 3.14337L10.4766 3.19007C9.80469 3.19007 9.29688 3.30683 8.95312 3.54034C9.64062 3.86727 9.98438 4.39657 9.98438 5.12826V9.23815C9.95312 9.62734 9.79688 9.95037 9.51562 10.2072C9.23438 10.4641 8.92188 10.5925 8.57812 10.5925C8.10938 10.5925 7.75 10.3668 7.5 9.91534C6.28125 8.07835 5.375 6.33476 4.78125 4.68458L4.57031 4.07743L1.45312 4.05408C1.25 4.05408 1.13672 4.06576 1.11328 4.08911C1.08984 4.11246 1.07812 4.17862 1.07812 4.2876C1.07812 4.42771 1.09375 4.5756 1.125 4.73128L1.61719 6.03897C2.92969 9.41717 4.35547 12.0793 5.89453 14.0252C7.43359 15.9712 8.94531 16.9442 10.4297 16.9442H12.7734C12.8672 16.9442 12.9375 16.9169 12.9844 16.8625C13.0312 16.808 13.0703 16.7029 13.1016 16.5472L13.1484 16.3137L13.5938 14.2587C13.7188 13.9785 13.8281 13.7917 13.9219 13.6983C14.0938 13.5271 14.2969 13.4414 14.5312 13.4414C14.9062 13.4414 15.2891 13.6672 15.6797 14.1186L17.6719 16.6406C17.7969 16.843 17.9297 16.9442 18.0703 16.9442H21.9375C22.4062 16.9442 22.6406 16.8274 22.6406 16.5939C22.6406 16.5161 22.6172 16.4382 22.5703 16.3604L19.1719 12.1337C18.9062 11.8068 18.7734 11.4566 18.7734 11.0829C18.7734 10.7093 18.8984 10.3512 19.1484 10.0087C19.3516 9.69739 19.7461 9.17977 20.332 8.45587C20.918 7.73196 21.4297 7.05477 21.8672 6.42427C22.3047 5.79378 22.5938 5.22166 22.7344 4.70793L22.8047 4.40436C22.7891 4.37322 22.7812 4.32262 22.7812 4.25257C22.7812 4.18251 22.7734 4.12414 22.7578 4.07743H19.0781C18.8438 4.17084 18.6562 4.31095 18.5156 4.49776L18.375 4.94144C17.9844 6.01562 16.9609 7.67359 15.3047 9.91534C14.9766 10.2267 14.5938 10.3824 14.1562 10.3824Z" fill="white"/>
</svg>
