<svg width="24" height="25" viewBox="0 0 24 25" fill="none" xmlns="http://www.w3.org/2000/svg">
<path d="M12 0.960693C9.90754 0.961256 7.85159 1.5088 6.03603 2.54902C4.22047 3.58924 2.70837 5.086 1.64969 6.89087C0.59102 8.69573 0.0225488 10.746 0.000657108 12.8383C-0.0212345 14.9307 0.504214 16.9924 1.52489 18.819L0.492537 22.4319C0.411795 22.7144 0.408062 23.0133 0.481725 23.2977C0.555389 23.582 0.703767 23.8415 0.911481 24.0493C1.1192 24.257 1.37869 24.4054 1.66306 24.4791C1.94743 24.5527 2.24633 24.549 2.52878 24.4683L6.14185 23.4359C7.74239 24.331 9.52676 24.8473 11.3579 24.9453C13.1891 25.0432 15.0184 24.7203 16.7053 24.0011C18.3922 23.282 19.8919 22.1859 21.0892 20.7969C22.2864 19.4078 23.1495 17.7629 23.612 15.9884C24.0745 14.2139 24.1242 12.357 23.7573 10.5603C23.3904 8.76358 22.6166 7.07485 21.4953 5.62378C20.3741 4.17271 18.9352 2.99789 17.2892 2.18955C15.6432 1.3812 13.8338 0.960822 12 0.960693ZM12 23.549C10.0984 23.5503 8.23168 23.0387 6.59644 22.0682C6.51373 22.019 6.42186 21.9873 6.32645 21.9749C6.23105 21.9625 6.13412 21.9698 6.04161 21.9962L2.14089 23.1106C2.10057 23.1222 2.05788 23.1227 2.01727 23.1122C1.97666 23.1017 1.93961 23.0805 1.90994 23.0509C1.88027 23.0212 1.85908 22.9842 1.84855 22.9436C1.83802 22.9029 1.83855 22.8603 1.85007 22.8199L2.96443 18.9191C2.99085 18.8266 2.99809 18.7297 2.98571 18.6344C2.97333 18.539 2.94159 18.4472 2.89243 18.3645C1.69982 16.3553 1.20523 14.008 1.48569 11.6883C1.76615 9.36868 2.80593 7.20692 4.44304 5.5398C6.08015 3.87268 8.22266 2.79381 10.5368 2.47126C12.851 2.14871 15.2069 2.60059 17.2375 3.7565C19.2681 4.91241 20.8593 6.70746 21.7634 8.862C22.6675 11.0165 22.8336 13.4096 22.2359 15.6684C21.6382 17.9272 20.3102 19.9249 18.4588 21.3503C16.6074 22.7757 14.3365 23.5487 12 23.549ZM18.0593 14.938L15.6522 13.5624C15.3981 13.4175 15.1101 13.3428 14.8176 13.3459C14.5251 13.3491 14.2387 13.43 13.9878 13.5803L12.4766 14.487C11.628 14.0289 10.9319 13.3327 10.4739 12.4841L11.3806 10.973C11.5309 10.722 11.6118 10.4356 11.6149 10.1431C11.618 9.85061 11.5432 9.56254 11.3982 9.30848L10.0228 6.90142C9.88988 6.66947 9.69814 6.47669 9.46692 6.34251C9.2357 6.20833 8.97319 6.13751 8.70585 6.13718C7.64757 6.13751 6.63252 6.55708 5.88286 7.30405C5.1332 8.05103 4.70998 9.06456 4.70584 10.1228C4.70394 11.4527 4.96424 12.7699 5.47184 13.9991C5.97944 15.2283 6.7244 16.3454 7.66409 17.2864C8.60378 18.2274 9.71977 18.974 10.9482 19.4833C12.1767 19.9927 13.4935 20.2549 14.8234 20.2549H14.8379C15.8961 20.2507 16.9097 19.8275 17.6567 19.0779C18.4036 18.3282 18.8232 17.3131 18.8235 16.2549C18.8232 15.9875 18.7524 15.725 18.6182 15.4938C18.484 15.2626 18.2912 15.0709 18.0593 14.938ZM14.8359 18.8431H14.8235C13.6792 18.8431 12.5461 18.6175 11.4891 18.1792C10.432 17.741 9.47176 17.0986 8.66318 16.2889C7.8546 15.4792 7.21359 14.518 6.77679 13.4603C6.34 12.4027 6.116 11.2693 6.11761 10.125C6.12066 9.44058 6.39472 8.78528 6.8798 8.30249C7.36488 7.8197 8.02147 7.54875 8.70585 7.54895C8.72437 7.54897 8.74255 7.55387 8.75856 7.56317C8.77457 7.57246 8.78784 7.58582 8.79703 7.60189L10.1724 10.009C10.1932 10.0452 10.2038 10.0864 10.2034 10.1281C10.203 10.1699 10.1914 10.2108 10.17 10.2466L9.06527 12.0878C9.00673 12.1854 8.97267 12.2957 8.96599 12.4094C8.95932 12.523 8.98022 12.6366 9.02691 12.7404C9.66467 14.1599 10.801 15.2961 12.2205 15.9338C12.3243 15.9805 12.4378 16.0014 12.5515 15.9947C12.6651 15.988 12.7754 15.9539 12.873 15.8953L14.714 14.7909C14.7499 14.7694 14.7908 14.7579 14.8326 14.7574C14.8744 14.7569 14.9155 14.7675 14.9519 14.7881L17.3589 16.1638C17.375 16.173 17.3883 16.1863 17.3976 16.2022C17.4068 16.2182 17.4117 16.2364 17.4118 16.2549C17.412 16.9392 17.141 17.5958 16.6583 18.0809C16.1755 18.5659 15.5202 18.84 14.8359 18.8431Z" fill="white"/>
</svg>
